# xmcd CD database file
#
# Track frame offsets:
#	150
#	25637
#	47975
#	67284
#	93760
#	97372
#	118284
#	146470
#	168032
#	189757
#
# Disc length: 2888 seconds
#
# Revision: 1
# Processed by: cddbd v1.5.2PL0 Copyright (c) Steve Scherf et al.
# Submitted via: CDex 1.51
#
DISCID=870b460a
DTITLE=Frank Gambale - The Great Explorers
DYEAR=1900
DGENRE=Jazz
TTITLE0=Frankly Speaking
TTITLE1=The Final Frontier
TTITLE2=The Jaguar
TTITLE3=The Great Explorers
TTITLE4=Duet Tuet
TTITLE5=She Knows Me Well
TTITLE6=Thunder Current
TTITLE7=Dawn Over The Nullarbor
TTITLE8=Cruising Attitude
TTITLE9=Naughty Business
EXTD=
EXTT0=
EXTT1=
EXTT2=
EXTT3=
EXTT4=
EXTT5=
EXTT6=
EXTT7=
EXTT8=
EXTT9=
PLAYORDER=
